<?xml version="1.0" encoding="UTF-8"?>
<svg width="231px" height="42px" viewBox="0 0 231 42" version="1.1" xmlns="http://www.w3.org/2000/svg" xmlns:xlink="http://www.w3.org/1999/xlink">
    <!-- Generator: sketchtool 42 (36781) - http://www.bohemiancoding.com/sketch -->
    <title>D169C681-A8CC-4B8A-8F29-F21578090F2A</title>
    <desc>Created with sketchtool.</desc>
    <defs></defs>
    <g id="White-Login/Signup-flow" stroke="none" stroke-width="1" fill="none" fill-rule="evenodd">
        <g id="Cordova_Signup-/-Login" transform="translate(-434.000000, -180.000000)">
            <g id="Signup" transform="translate(50.000000, 59.000000)">
                <g id="Signup_2" transform="translate(340.000000, 41.000000)">
                    <g id="Main-content" transform="translate(30.000000, 80.000000)">
                        <g id="Left-align_Logo-Copy" transform="translate(14.000000, 0.000000)">
                            <g id="Text-logo-Copy" transform="translate(53.530864, 15.305085)" fill="#1F5C87">
                                <polygon id="Fill-1" points="172.167698 3.37780808 172.167698 0.433859838 171.123311 0.433859838 171.123311 0.0658663078 173.627018 0.0658663078 173.627018 0.433859838 172.578397 0.433859838 172.578397 3.37780808"></polygon>
                                <polygon id="Fill-2" points="176.526682 0.0658663078 175.49782 2.55831479 174.47178 0.0658663078 173.883253 0.0658663078 173.883253 3.37780808 174.293952 3.37780808 174.293952 0.651825236 175.41314 3.37780808 175.579677 3.37780808 176.705921 0.651825236 176.705921 3.37780808 177.11662 3.37780808 177.11662 0.0658663078"></polygon>
                                <path d="M10.1106402,0.0658663078 L0.533327452,0.0658663078 C0.241181306,0.0658663078 0.0068998553,0.302231383 0.0068998553,0.593795487 L0.0068998553,1.99783234 C0.0068998553,2.28939644 0.241181306,2.52576152 0.533327452,2.52576152 L3.99956385,2.52576152 L3.99956385,13.2556036 C3.99956385,13.5471677 4.23525663,13.7835328 4.52599145,13.7835328 L6.09680623,13.7835328 C6.38754104,13.7835328 6.62323383,13.5471677 6.62323383,13.2556036 L6.62323383,2.52576152 L10.1106402,2.52576152 C10.401375,2.52576152 10.6370678,2.28939644 10.6370678,1.99783234 L10.6370678,0.593795487 C10.6370678,0.302231383 10.401375,0.0658663078 10.1106402,0.0658663078" id="Fill-3"></path>
                                <path d="M21.2348767,8.51273318 L23.145823,3.66654146 L25.0440672,8.51273318 L21.2348767,8.51273318 Z M24.6009084,0.395645125 C24.5204623,0.196079403 24.3271096,0.0658663078 24.1125868,0.0658663078 L22.1649458,0.0658663078 C21.9490117,0.0658663078 21.7556589,0.196079403 21.6766242,0.397060485 L16.6042897,13.0574533 C16.5393683,13.221635 16.559127,13.4056318 16.6565091,13.5514138 C16.7538911,13.6957805 16.9176058,13.7835328 17.0926113,13.7835328 L18.8892395,13.7835328 C19.1051736,13.7835328 19.2985264,13.650489 19.3789724,13.4509233 L20.3626722,10.9726284 L25.9332077,10.9726284 L26.9183188,13.4509233 C26.9973536,13.650489 27.1907063,13.7835328 27.4066404,13.7835328 L29.2060913,13.7835328 L29.2329067,13.7835328 C29.5222301,13.7835328 29.7593343,13.5471677 29.7593343,13.2556036 C29.7593343,13.1268059 29.7141716,13.0107464 29.6379595,12.918748 L24.6009084,0.395645125 Z" id="Fill-5"></path>
                                <path d="M42.5318358,5.57161566 C40.884809,5.12294662 39.8855845,4.79458317 39.8855845,4.01047388 C39.8855845,3.12304332 40.7154489,2.52576152 41.9517775,2.52576152 C43.2685522,2.52576152 44.4272574,3.00415311 45.2147818,3.87176862 C45.3178092,3.98641276 45.4659993,4.02038139 45.617012,4.04585787 C45.7708474,4.04161179 45.9148035,3.9708438 46.0107742,3.85336895 L46.9577793,2.69418933 C47.1271394,2.48896217 47.1158488,2.1889059 46.9323753,1.99641698 C45.7383867,0.7339161 44.0546652,0.0658663078 42.0646842,0.0658663078 C39.2490728,0.0658663078 37.2040498,1.76429798 37.2040498,4.10530298 C37.2040498,6.95017603 39.7430397,7.64228694 41.7838288,8.19852332 C43.5790457,8.68823778 44.6798862,9.04066236 44.6798862,10.0837825 C44.6798862,10.8834607 44.0377292,11.7397534 42.2354556,11.7397534 C40.3866081,11.7397534 39.1968535,10.719279 38.6520785,10.1106743 C38.5490511,9.99461481 38.3966271,9.92667755 38.2427917,9.9351697 C38.0861336,9.9422465 37.9407662,10.0158452 37.8447955,10.1389815 L36.917549,11.3363758 C36.7608909,11.5359416 36.7707703,11.8190135 36.938719,12.0100871 C37.8236254,13.009331 39.4494823,14.1996486 42.177591,14.1996486 C45.9994835,14.1996486 47.3614209,12.0044256 47.3614209,9.95073866 C47.3614209,6.88648485 44.5698021,6.12643667 42.5318358,5.57161566" id="Fill-7"></path>
                                <path d="M62.1307402,6.61473578 L67.090168,0.941973981 C67.2270674,0.78628441 67.2595281,0.565488292 67.1734367,0.375830089 C67.0887567,0.187587245 66.9010493,0.0658663078 66.6949945,0.0658663078 L64.7247722,0.0658663078 C64.5709368,0.0658663078 64.424158,0.133803575 64.3253646,0.249863073 L59.6679623,5.71315163 L59.6679623,0.593795487 C59.6679623,0.302231383 59.4322695,0.0658663078 59.1415347,0.0658663078 L57.5721313,0.0658663078 C57.2799851,0.0658663078 57.0457037,0.302231383 57.0457037,0.593795487 L57.0457037,13.2556036 C57.0457037,13.5471677 57.2799851,13.7835328 57.5721313,13.7835328 L59.1415347,13.7835328 C59.4322695,13.7835328 59.6679623,13.5471677 59.6679623,13.2556036 L59.6679623,9.20342872 L60.401856,8.36836648 L64.7967502,13.59529 C64.8969549,13.7141802 65.0437337,13.7835328 65.1989804,13.7835328 L67.1480327,13.7835328 L67.1748481,13.7835328 C67.4655829,13.7835328 67.7012757,13.5471677 67.7012757,13.2556036 C67.7012757,13.0701915 67.6067163,12.9088405 67.4641715,12.8140114 L62.1307402,6.61473578 Z" id="Fill-9"></path>
                                <path d="M91.2149016,0.0658663078 L89.4733154,0.0658663078 C89.2348,0.0658663078 89.0245112,0.227217317 88.9638238,0.459336313 L86.6816967,9.1199225 L84.3035988,0.453674874 C84.2400888,0.224386598 84.0312114,0.0658663078 83.7955186,0.0658663078 L82.4886233,0.0658663078 C82.2515191,0.0658663078 82.0426417,0.224386598 81.980543,0.453674874 L79.6010338,9.1269993 L77.3005593,0.457920953 C77.239872,0.227217317 77.0309945,0.0658663078 76.7924791,0.0658663078 L75.0508929,0.0658663078 C74.8857668,0.0658663078 74.7305201,0.143711093 74.6303153,0.276754908 C74.531522,0.408383362 74.5004726,0.57964189 74.5456353,0.738162179 L78.1417144,13.3999703 C78.2052245,13.6264279 78.4112792,13.7835328 78.646972,13.7835328 L80.3504522,13.7835328 C80.5875563,13.7835328 80.7950224,13.6250125 80.8571211,13.3943089 L83.1321916,5.04510184 L85.4072621,13.3943089 C85.4707721,13.6250125 85.6782382,13.7835328 85.9153423,13.7835328 L87.6188225,13.7835328 C87.8531039,13.7835328 88.06057,13.6264279 88.1240801,13.3999703 L91.7201592,0.738162179 C91.7667332,0.57964189 91.7342725,0.408383362 91.6354792,0.276754908 C91.5352744,0.143711093 91.3800277,0.0658663078 91.2149016,0.0658663078" id="Fill-11"></path>
                                <path d="M106.156156,11.7595684 C103.697612,11.7595684 102.04494,9.90403179 102.04494,7.14266496 C102.04494,4.38129812 103.697612,2.52717688 106.156156,2.52717688 C108.614699,2.52717688 110.267372,4.38129812 110.267372,7.14266496 C110.267372,9.90403179 108.614699,11.7595684 106.156156,11.7595684 M106.156156,0.0658663078 C102.221356,0.0658663078 99.3648162,3.04236782 99.3648162,7.14266496 C99.3648162,11.2443775 102.221356,14.2194636 106.156156,14.2194636 C110.092366,14.2194636 112.948906,11.2443775 112.948906,7.14266496 C112.948906,3.04236782 110.092366,0.0658663078 106.156156,0.0658663078" id="Fill-13"></path>
                                <path d="M128.845389,4.40960532 C128.845389,5.54755454 128.043751,6.31043344 126.852585,6.31043344 L124.066612,6.31043344 L124.066612,2.52576152 L126.852585,2.52576152 C128.06351,2.52576152 128.845389,3.2645793 128.845389,4.40960532 L128.845389,4.40960532 Z M128.601228,8.46319559 C130.159341,8.01594191 131.525512,6.68691912 131.525512,4.40960532 C131.525512,1.85063493 129.68231,0.0658663078 127.043115,0.0658663078 L121.970781,0.0658663078 C121.680046,0.0658663078 121.444353,0.302231383 121.444353,0.593795487 L121.444353,13.2541883 C121.444353,13.5471677 121.680046,13.7821175 121.970781,13.7821175 L123.540184,13.7821175 C123.83233,13.7821175 124.066612,13.5471677 124.066612,13.2541883 L124.066612,8.75192897 L125.770092,8.75192897 L128.832687,13.5400909 C128.928658,13.6915344 129.096606,13.7821175 129.275846,13.7821175 L131.13175,13.7821175 C131.137395,13.7807021 131.145863,13.7821175 131.157154,13.7821175 C131.447889,13.7821175 131.684993,13.5471677 131.684993,13.2541883 C131.684993,13.0914219 131.610192,12.9470552 131.494463,12.8493954 L128.601228,8.46319559 Z" id="Fill-15"></path>
                                <path d="M148.728106,11.3222222 L143.386207,11.3222222 L143.386207,0.593795487 C143.386207,0.302231383 143.150514,0.0658663078 142.859779,0.0658663078 L141.290376,0.0658663078 C140.999641,0.0658663078 140.763948,0.302231383 140.763948,0.593795487 L140.763948,13.2556036 C140.763948,13.5471677 140.999641,13.7835328 141.290376,13.7835328 L148.728106,13.7835328 C149.018841,13.7835328 149.254534,13.5471677 149.254534,13.2556036 L149.254534,11.8501514 C149.254534,11.5585873 149.018841,11.3222222 148.728106,11.3222222" id="Fill-17"></path>
                                <path d="M167.404551,6.93460708 C167.404551,9.11850714 166.069429,11.3222222 163.084457,11.3222222 L160.867251,11.3222222 L160.867251,2.52576152 L163.084457,2.52576152 C165.709538,2.52576152 167.404551,4.25674647 167.404551,6.93460708 M163.084457,0.0658663078 L158.770009,0.0658663078 C158.479274,0.0658663078 158.243581,0.302231383 158.243581,0.593795487 L158.243581,13.2556036 C158.243581,13.5471677 158.479274,13.7835328 158.770009,13.7835328 L163.084457,13.7835328 C167.205553,13.7835328 170.084674,10.9669669 170.084674,6.93460708 C170.084674,2.95461552 167.140631,0.0658663078 163.084457,0.0658663078" id="Fill-19"></path>
                            </g>
                            <path d="M0,30.3898889 L0.00993830434,11.5905935 C0.00993830434,10.8896479 0.374342797,10.241024 0.964843713,9.89055119 L16.8023599,0.500039027 C17.393689,0.149566211 18.1216698,0.149566211 18.7121707,0.500869531 L34.5397485,9.90882228 C35.1310776,10.2601256 35.4946539,10.9087495 35.4938257,11.6096951 L35.4847156,30.4089905 C35.4838874,31.1107666 35.119483,31.75856 34.528982,32.1090328 L18.6914659,41.5003755 C18.1001368,41.8508483 17.372156,41.8500178 16.7816551,41.4987145 L0.954077216,32.0907617 C0.3635763,31.7394584 0,31.0916651 0,30.3898889 Z M10.3523175,26.2637774 C11.1680867,26.2637774 11.8314685,25.5952215 11.8314685,24.7730222 L11.8314685,21.8222404 C11.8314685,21.0008717 11.1680867,20.3314852 10.3523175,20.3314852 C9.53654838,20.3314852 8.87316657,21.0008717 8.87316657,21.8222404 L8.87316657,24.7730222 C8.87316657,25.5952215 9.53654838,26.2637774 10.3523175,26.2637774 Z M22.1837032,21.8145998 C22.9994724,21.8145998 23.6628542,21.1460438 23.6628542,20.3238446 L23.6628542,17.3730628 C23.6628542,16.551694 22.9994724,15.8823075 22.1837032,15.8823075 C21.3679341,15.8823075 20.7045522,16.551694 20.7045522,17.3730628 L20.7045522,20.3238446 C20.7045522,21.1460438 21.3679341,21.8145998 22.1837032,21.8145998 Z M26.6296037,15.8791516 L26.6296037,23.6078247 C26.6296037,23.7523324 26.6238063,24.2232284 26.385287,24.4806847 C26.1484241,24.73648 25.6722137,24.7904628 25.3144347,24.7904628 L19.0524748,24.7904628 C18.6946958,24.7904628 18.2184854,24.73648 17.9816225,24.4806847 C17.7439314,24.2232284 17.7373058,23.7581459 17.7373058,23.6302483 L17.7373058,19.1496776 C17.7373058,17.3566188 17.0126378,16.2802852 16.4047449,15.6931187 C15.0870914,14.4207861 13.3197296,14.3942099 12.9843118,14.4016845 L7.38987465,14.4016845 C6.57576188,14.4016845 5.91569284,15.0635964 5.91569284,15.8799821 C5.91569284,16.6963679 6.57576188,17.3582798 7.38987465,17.3582798 L13.0033602,17.3582798 C13.0207522,17.3582798 13.0232368,17.3582798 13.0422852,17.3574493 C13.2774918,17.3499747 13.9657194,17.4338557 14.3698771,17.8333282 C14.6522905,18.1123777 14.7889422,18.5425789 14.7889422,19.1496776 L14.7889422,23.4143172 C14.7889422,23.8254168 14.7525018,25.2995619 15.7802881,26.4481494 C16.3111592,27.040299 17.3091306,27.7470581 19.0524748,27.7470581 L25.3144347,27.7470581 C27.0577789,27.7470581 28.0565785,27.040299 28.5866214,26.4481494 C29.6152359,25.2995619 29.5779673,23.8345523 29.5779673,23.4143172 L29.5779673,15.8791516 C29.5779673,15.0627659 28.9178982,14.400854 28.1037855,14.400854 C27.2896727,14.400854 26.6296037,15.0627659 26.6296037,15.8791516 Z" id="Logo" fill="#2EBBBD"></path>
                        </g>
                    </g>
                </g>
            </g>
        </g>
    </g>
</svg>