<?xml version="1.0" encoding="UTF-8" standalone="no"?>
<svg width="250px" height="72px" viewBox="0 0 250 72" version="1.1" xmlns="http://www.w3.org/2000/svg" xmlns:xlink="http://www.w3.org/1999/xlink">
    <!-- Generator: sketchtool 39.1 (31720) - http://www.bohemiancoding.com/sketch -->
    <title>48BB6577-CD7C-4D6D-8DC9-41FB03585A80</title>
    <desc>Created with sketchtool.</desc>
    <defs></defs>
    <g id="Page-1" stroke="none" stroke-width="1" fill="none" fill-rule="evenodd">
        <g id="Language_selection" transform="translate(-515.000000, -61.000000)">
            <g id="LOGO" transform="translate(515.000000, 61.000000)">
                <polygon id="Fill-1" fill="#FEFEFE" points="243.888934 32.4598742 243.888934 29.5086436 242.83857 29.5086436 242.83857 29.1410163 245.356526 29.1410163 245.356526 29.5086436 244.301786 29.5086436 244.301786 32.4598742"></polygon>
                <polygon id="Fill-2" fill="#FEFEFE" points="248.562032 29.1408704 247.527715 31.639861 246.496317 29.1408704 245.904028 29.1408704 245.904028 32.4597283 246.318338 32.4597283 246.318338 29.7287824 247.441644 32.4597283 247.610869 32.4597283 248.741469 29.7287824 248.741469 32.4597283 249.155779 32.4597283 249.155779 29.1408704"></polygon>
                <path d="M81.0818135,29.3494843 L71.4549374,29.3494843 C71.1631697,29.3494843 70.925379,29.5858162 70.925379,29.8790427 L70.925379,31.286822 C70.925379,31.5785898 71.1631697,31.8149216 71.4549374,31.8149216 L74.9401029,31.8149216 L74.9401029,42.5680212 C74.9401029,42.8612477 75.1764347,43.0975796 75.4696613,43.0975796 L77.0466659,43.0975796 C77.3398924,43.0975796 77.5762243,42.8612477 77.5762243,42.5680212 L77.5762243,31.8149216 L81.0818135,31.8149216 C81.3735812,31.8149216 81.6113719,31.5785898 81.6113719,31.286822 L81.6113719,29.8790427 C81.6113719,29.5858162 81.3735812,29.3494843 81.0818135,29.3494843" id="Fill-3" fill="#FEFEFE"></path>
                <path d="M92.3630127,37.8155626 L94.2843031,32.9576299 L96.1924641,37.8155626 L92.3630127,37.8155626 Z M95.7460595,29.6796195 C95.6658233,29.4812175 95.4717978,29.349922 95.2558897,29.349922 L93.2966694,29.349922 C93.0807613,29.349922 92.8867357,29.4812175 92.8064996,29.6810783 L87.7078586,42.3715156 C87.6436697,42.5349055 87.6626346,42.7187192 87.7603768,42.8646031 C87.8595778,43.0104869 88.0229677,43.0980172 88.1994872,43.0980172 L90.0055294,43.0980172 C90.2228964,43.0980172 90.4169219,42.9652629 90.4971581,42.765402 L91.4862506,40.2809998 L97.0852733,40.2809998 L98.0743659,42.765402 C98.1560609,42.9652629 98.3500864,43.0980172 98.5674534,43.0980172 L100.374954,43.0980172 L100.401214,43.0980172 C100.692981,43.0980172 100.930772,42.8602265 100.930772,42.5684588 C100.930772,42.440081 100.885548,42.3233739 100.809688,42.2314671 L95.7460595,29.6796195 Z" id="Fill-5" fill="#FEFEFE"></path>
                <path d="M113.836971,34.6780383 C112.18119,34.228716 111.177509,33.8990185 111.177509,33.1127045 C111.177509,32.2242717 112.011964,31.6246891 113.253436,31.6246891 C114.578061,31.6246891 115.742215,32.104647 116.532905,32.9755736 C116.636483,33.0879042 116.786743,33.1229163 116.938462,33.1491754 C117.09164,33.1447989 117.237524,33.0747747 117.333808,32.9551499 L118.286429,31.7953732 C118.455655,31.5882181 118.443984,31.2876973 118.26017,31.0951306 C117.061005,29.8288587 115.367293,29.1592518 113.367225,29.1592518 C110.537078,29.1592518 108.483034,30.8631753 108.483034,33.2089878 C108.483034,36.0595585 111.034542,36.7525068 113.08567,37.3097832 C114.890253,37.8014118 115.996053,38.1544508 115.996053,39.2004381 C115.996053,40.0027993 115.351246,40.8605964 113.539368,40.8605964 C111.680808,40.8605964 110.486019,39.8364917 109.937496,39.2266972 C109.833918,39.1099901 109.68074,39.0428835 109.526103,39.0516365 C109.368549,39.0574719 109.222665,39.1318727 109.126382,39.2558739 L108.194184,40.4550393 C108.036629,40.6549002 108.046841,40.9393737 108.216066,41.1304816 C109.104499,42.1327037 110.738398,43.3260337 113.481015,43.3260337 C117.322137,43.3260337 118.690528,41.1261051 118.690528,39.0676838 C118.690528,35.9953696 115.885181,35.2338558 113.836971,34.6780383" id="Fill-7" fill="#FEFEFE"></path>
                <path d="M132.716094,35.9129452 L137.700946,30.2278511 C137.838076,30.0702965 137.87163,29.8500119 137.785558,29.6603628 C137.699487,29.4721727 137.511297,29.3496302 137.304141,29.3496302 L135.323039,29.3496302 C135.168402,29.3496302 135.021059,29.4181956 134.921858,29.5349027 L130.240445,35.0084653 L130.240445,29.8791886 C130.240445,29.5859621 130.004113,29.3496302 129.712345,29.3496302 L128.133882,29.3496302 C127.840655,29.3496302 127.604323,29.5859621 127.604323,29.8791886 L127.604323,42.5681671 C127.604323,42.8613936 127.840655,43.0977255 128.133882,43.0977255 L129.712345,43.0977255 C130.004113,43.0977255 130.240445,42.8613936 130.240445,42.5681671 L130.240445,38.5067603 L130.977158,37.6708458 L135.395981,42.9095353 C135.49664,43.0277012 135.643983,43.0977255 135.800079,43.0977255 L137.759299,43.0977255 L137.785558,43.0977255 C138.077326,43.0977255 138.315117,42.8613936 138.315117,42.5681671 C138.315117,42.3828945 138.220292,42.2209635 138.075867,42.1261389 L132.716094,35.9129452 Z" id="Fill-9" fill="#FEFEFE"></path>
                <path d="M162.206663,29.3494843 L160.456056,29.3494843 C160.216807,29.3494843 160.005275,29.5114154 159.944004,29.7433708 L157.65071,38.4249195 L155.259673,29.7375354 C155.195484,29.5084977 154.98687,29.3494843 154.74908,29.3494843 L153.436125,29.3494843 C153.198334,29.3494843 152.988261,29.5084977 152.925531,29.7375354 L150.534495,38.4307548 L148.222236,29.7419119 C148.159506,29.5114154 147.950892,29.3494843 147.710183,29.3494843 L145.961036,29.3494843 C145.794728,29.3494843 145.638632,29.4268028 145.537973,29.5610159 C145.438772,29.6923114 145.406677,29.8644544 145.451901,30.0234678 L149.066903,42.7124462 C149.131092,42.940025 149.338247,43.0975796 149.574579,43.0975796 L151.285797,43.0975796 C151.525046,43.0975796 151.73366,42.9385662 151.79639,42.7080697 L154.08239,34.3401713 L156.369849,42.7080697 C156.432579,42.9385662 156.641193,43.0975796 156.880443,43.0975796 L158.591661,43.0975796 C158.827993,43.0975796 159.036606,42.940025 159.100795,42.7124462 L162.715797,30.0234678 C162.761021,29.8644544 162.728927,29.6923114 162.629726,29.5610159 C162.529066,29.4268028 162.37297,29.3494843 162.206663,29.3494843" id="Fill-11" fill="#FEFEFE"></path>
                <path d="M176.990242,40.8601588 C174.518969,40.8601588 172.858811,39.0015984 172.858811,36.2327226 C172.858811,33.4653058 174.518969,31.6067453 176.990242,31.6067453 C179.461514,31.6067453 181.121673,33.4653058 181.121673,36.2327226 C181.121673,39.0015984 179.461514,40.8601588 176.990242,40.8601588 M176.990242,29.1413081 C173.03533,29.1413081 170.164336,32.1231742 170.164336,36.2327226 C170.164336,40.3437299 173.03533,43.3255961 176.990242,43.3255961 C180.946612,43.3255961 183.817607,40.3437299 183.817607,36.2327226 C183.817607,32.1231742 180.946612,29.1413081 176.990242,29.1413081" id="Fill-13" fill="#FEFEFE"></path>
                <path d="M200.283081,33.7033882 C200.283081,34.8427412 199.477802,35.6086315 198.280095,35.6086315 L195.480584,35.6086315 L195.480584,31.815651 L198.280095,31.815651 C199.496766,31.815651 200.283081,32.5567411 200.283081,33.7033882 L200.283081,33.7033882 Z M200.036537,37.7662538 C201.603329,37.3183904 202.976097,35.9864707 202.976097,33.7033882 C202.976097,31.1387499 201.12483,29.3487549 198.471203,29.3487549 L193.374021,29.3487549 C193.080794,29.3487549 192.844462,29.5865456 192.844462,29.8783133 L192.844462,42.5687506 C192.844462,42.8605183 193.080794,43.0968502 193.374021,43.0968502 L194.951025,43.0968502 C195.244252,43.0968502 195.480584,42.8605183 195.480584,42.5687506 L195.480584,38.0551039 L197.191801,38.0551039 L200.269951,42.8532241 C200.366234,43.0049433 200.53546,43.0968502 200.714897,43.0968502 L202.580751,43.0968502 C202.586587,43.0953913 202.59534,43.0968502 202.60701,43.0968502 C202.898778,43.0968502 203.136569,42.8605183 203.136569,42.5687506 C203.136569,42.4053607 203.062168,42.2594768 202.94692,42.1617346 L200.036537,37.7662538 Z" id="Fill-15" fill="#FEFEFE"></path>
                <path d="M220.027148,40.6306835 L214.658622,40.6306835 L214.658622,29.8790427 C214.658622,29.5858162 214.42229,29.3494843 214.129064,29.3494843 L212.5506,29.3494843 C212.258833,29.3494843 212.022501,29.5858162 212.022501,29.8790427 L212.022501,42.5680212 C212.022501,42.8612477 212.258833,43.0975796 212.5506,43.0975796 L220.027148,43.0975796 C220.318916,43.0975796 220.556707,42.8612477 220.556707,42.5680212 L220.556707,41.1602419 C220.556707,40.8670153 220.318916,40.6306835 220.027148,40.6306835" id="Fill-17" fill="#FEFEFE"></path>
                <path d="M238.542582,36.2333062 C238.542582,38.4215641 237.200451,40.6302458 234.201079,40.6302458 L231.971973,40.6302458 L231.971973,31.8159428 L234.201079,31.8159428 C236.838659,31.8159428 238.542582,33.5490431 238.542582,36.2333062 M234.201079,29.3490467 L229.86541,29.3490467 C229.572184,29.3490467 229.335852,29.5868374 229.335852,29.8786051 L229.335852,42.5690424 C229.335852,42.8608101 229.572184,43.0971419 229.86541,43.0971419 L234.201079,43.0971419 C238.342722,43.0971419 241.237057,40.275748 241.237057,36.2333062 C241.237057,32.2448414 238.278533,29.3490467 234.201079,29.3490467" id="Fill-19" fill="#FEFEFE"></path>
                <path d="M0,52.2716322 L0.016047225,20.1625939 C0.0175060636,18.9648874 0.64043016,17.8576289 1.65286417,17.259505 L28.7799685,1.21811545 C29.7924025,0.619991606 31.0382507,0.621450445 32.0506847,1.22103312 L59.160283,17.2901407 C60.1712582,17.8897233 60.7941823,18.9969819 60.7941823,20.1946884 L60.7766763,52.3037267 C60.7766763,53.502892 60.1522933,54.6101505 59.1398593,55.2082744 L32.0142138,71.2482051 C31.0017798,71.846329 29.7559316,71.846329 28.7434976,71.2467463 L1.63389927,55.1776388 C0.621465257,54.5780561 0,53.4693387 0,52.2716322" id="Fill-21" fill="#4EBFC1"></path>
                <path d="M60.7689444,19.8091173 C60.6843318,19.0592743 60.3590108,18.3663259 59.8484172,17.8353087 L0.93613675,54.6199248 C1.14037416,54.834374 1.37378834,55.0225642 1.63346162,55.1772011 L28.7430599,71.2463087 C29.7554939,71.8458913 31.0013421,71.8458913 32.0137761,71.2477675 L59.1408805,55.2078367 C60.1168435,54.6315955 60.7251792,53.5797728 60.7689444,52.4316668 L60.7689444,19.8091173 Z" id="Fill-24" fill="#23A8AB"></path>
                <path d="M17.7314542,45.2239828 C19.1275627,45.2239828 20.263998,44.0817121 20.263998,42.6768505 L20.263998,37.6380219 C20.263998,36.2346191 19.1275627,35.0923485 17.7314542,35.0923485 C16.3353456,35.0923485 15.1989103,36.2346191 15.1989103,37.6380219 L15.1989103,42.6768505 C15.1989103,44.0817121 16.3353456,45.2239828 17.7314542,45.2239828" id="Fill-26" fill="#FEFEFE"></path>
                <path d="M37.9960357,37.6247465 C39.3921443,37.6247465 40.5285796,36.4824758 40.5285796,35.0776142 L40.5285796,30.0387856 C40.5285796,28.6353828 39.3921443,27.4931122 37.9960357,27.4931122 C36.5999271,27.4931122 35.4634918,28.6353828 35.4634918,30.0387856 L35.4634918,35.0776142 C35.4634918,36.4824758 36.5999271,37.6247465 37.9960357,37.6247465" id="Fill-28" fill="#FEFEFE"></path>
                <path d="M45.6110275,27.4868392 C45.6110275,26.0921894 46.7416274,24.9615895 48.1362772,24.9615895 C49.5309269,24.9615895 50.6615268,26.0921894 50.6615268,27.4868392 L50.6615268,40.3581724 C50.6615268,41.0744622 50.7242569,43.5763704 48.9634387,45.5385084 C48.0545822,46.5509424 46.3448233,47.757402 43.3585806,47.757402 L32.633199,47.757402 C29.6469563,47.757402 27.9371975,46.5509424 27.028341,45.5385084 C25.2675228,43.5763704 25.3302528,41.0598738 25.3302528,40.3581724 L25.3302528,33.0727323 C25.3302528,32.035498 25.0953798,31.3002433 24.6125042,30.8246619 C23.9210147,30.1419255 22.7422731,29.9989593 22.3381748,30.0120888 C22.3060803,30.0135477 22.3031627,30.0135477 22.2710682,30.0135477 L12.6573216,30.0135477 C11.2626719,30.0135477 10.132072,28.8829477 10.132072,27.488298 C10.132072,26.0936483 11.2626719,24.9630483 12.6573216,24.9630483 L22.2389738,24.9630483 C22.8137562,24.9499188 25.8408463,24.9966016 28.0976697,27.1688123 C29.1392805,28.1724933 30.3807522,30.01063 30.3807522,33.0727323 L30.3807522,40.7257997 C30.3807522,40.9446255 30.390964,41.7396926 30.7994389,42.178803 C31.204996,42.6149958 32.0204868,42.7069026 32.633199,42.7069026 L43.3585806,42.7069026 C43.9712929,42.7069026 44.7867837,42.6149958 45.1923408,42.178803 C45.6008156,41.7396926 45.6110275,40.9344137 45.6110275,40.6878699 L45.6110275,27.4868392 Z" id="Fill-30" fill="#FEFEFE"></path>
            </g>
        </g>
    </g>
</svg>